<svg xmlns="http://www.w3.org/2000/svg" viewBox="0 0 2880 1600"><defs><style>.e24265cb-f2bd-4130-8e45-ed3ae0edf761{fill:#fff;}.a0a86278-94fd-4fdd-bc9a-82dae9487dbd{fill:#fa446c;}.f7608e5c-513a-4e0f-9c99-d2845201f0f0{fill:#5295a0;}.f7920c49-4855-41a6-9b1a-70fef94dce11{fill:#713cd5;}.ad24cd7a-30c5-4ae4-8313-a4eddb518326{fill:#b8b1e5;}.ab2a2852-88d4-4977-93aa-6124c0a3f44a{fill:#e7b2b6;}.bee964a5-a763-4984-ba93-36a711ea792c{fill:#311649;}.b72b3f23-769c-4ecd-a68f-9066ce174fb1{fill:#462260;}.b5d6dfc6-0b3a-49aa-ab9a-fa0705991427{fill:#562ac5;}.a274e03e-9e51-4fef-9ef4-30abf3fd3474{fill:#d98789;}.ba05bf39-452a-4759-8df1-f97ee4459be0{fill:#d3c5ff;}.ee406feb-65e2-4381-8c97-62491036876f{fill:#c3b8f2;}.e55b7181-9844-4f1b-b5cb-8c563200cac9{fill:#feb8dd;}.a51a2f00-3c58-4e33-8e77-d601b141b1e3{fill:#ffebf6;}.b840517c-90ca-459b-9a84-2fbef3ec4c51{fill:#fed7ea;}.a7e07ee1-cabc-4993-adfc-84f758b37bdf{fill:#f29cc3;}</style></defs><title>Asset 1</title><g id="bafdf11d-ace1-4225-991d-181206fbdc95" data-name="Layer 2"><g id="b36a7e62-22f4-4a6d-8c62-c4dc4ddee741" data-name="Слой 2"><rect class="e24265cb-f2bd-4130-8e45-ed3ae0edf761" width="2880" height="1600"/><path class="a0a86278-94fd-4fdd-bc9a-82dae9487dbd" d="M0,0V383.55C287.94,455.73,511.12,283,578.77,0Z"/><path class="f7608e5c-513a-4e0f-9c99-d2845201f0f0" d="M2880,0H1040.57c-13.27,439.91,243.53,1010.89,716.58,1312,343,218.31,744.21,229.81,1122.85,119.49Z"/><path class="f7920c49-4855-41a6-9b1a-70fef94dce11" d="M2798.14,1182.58H1121.82a5.85,5.85,0,0,0-5.83,5.84v.07a5.84,5.84,0,0,0,5.83,5.83H2798.14a5.75,5.75,0,0,0,5.73-5.73v-.27A5.76,5.76,0,0,0,2798.14,1182.58Z"/><path class="ad24cd7a-30c5-4ae4-8313-a4eddb518326" d="M2415.38,605l-33.73,25.17s43.16,266.61,49.8,336.65l174.43-5.36S2536.83,597.08,2415.38,605Z"/><path class="ad24cd7a-30c5-4ae4-8313-a4eddb518326" d="M2405.86,601.67l-1.79,56.77s-5.66,105.28-12.57,115.34c-3.29,4.79-17,15.59-30.42,25.6-14.8,11-29.3,21.08-29.3,21.08h-27.61l37.27-46.66,13.58-17s6.09-101.45,7.17-113.78C2364.16,620.72,2405.86,601.67,2405.86,601.67Z"/><path class="ab2a2852-88d4-4977-93aa-6124c0a3f44a" d="M2361.08,799.38c-14.8,11-29.3,21.08-29.3,21.08h-27.61l37.27-46.66C2345.61,778.21,2357.4,791.06,2361.08,799.38Z"/><path class="bee964a5-a763-4984-ba93-36a711ea792c" d="M2495.84,1161.84l-6.34,20.39h-62.91S2442.68,1154.73,2495.84,1161.84Z"/><path class="bee964a5-a763-4984-ba93-36a711ea792c" d="M2607.59,1162.29l-5.62,20.39h-55.7S2560.52,1155.18,2607.59,1162.29Z"/><path class="b72b3f23-769c-4ecd-a68f-9066ce174fb1" d="M2463.78,782.93h120.95s-40.67,201.89-87.87,380.62l-57,1.66Z"/><path class="b5d6dfc6-0b3a-49aa-ab9a-fa0705991427" d="M2603.24,781s25.42,151.74,7.46,384.24h-48.76l-30.55-306.47h0c-.89-9-14.68-16.79-14.68-16.79v-52.5Z"/><path class="bee964a5-a763-4984-ba93-36a711ea792c" d="M2599.23,1123.56c-4.42-29.16-8.08-63.77-10.09-99.87-.31-5.52-.59-11.2-.84-16.88-.28-6.27-.52-12.62-.72-18.87a28.47,28.47,0,0,1,1.09-7,27.87,27.87,0,0,0,1-6.39c-.59-23.77-.11-45.53.32-64.74q.16-7.54.31-14.8c.81-43.66,1.11-68.4,1.1-68.65h0c0,.25,1.1,24.86.29,68.59q-.14,7.25-.31,14.8c-.43,19.19-.91,40.93-.32,64.66a29,29,0,0,1-1.08,6.83,27.23,27.23,0,0,0-1.05,6.58c.2,6.25.44,12.59.72,18.85.25,5.67.53,11.35.84,16.86,2,36.06,4.68,71,9.1,100.08Z"/><path class="f7920c49-4855-41a6-9b1a-70fef94dce11" d="M2405.86,601.67c21-18.79,55.09-30,87.16-33.75,36.62-4.25,126.84,183.52,91.71,207.12-40.07,26.91-120.95,7.89-120.95,7.89s-40.72-51.76-51.8-75.24C2403.89,690.54,2405.86,601.67,2405.86,601.67Z"/><polygon class="b5d6dfc6-0b3a-49aa-ab9a-fa0705991427" points="2347.5 567.9 2299.33 594.34 2310.49 615.19 2358.66 587.88 2347.5 567.9"/><path class="f7920c49-4855-41a6-9b1a-70fef94dce11" d="M2362.19,602.85l-11.16-20-42.64,23.4-15.32-29.57L2238,603.91l22.86,52.21c22.77,2,61.06-23.7,61.06-23.7l-2.7-5.21Z"/><path class="ad24cd7a-30c5-4ae4-8313-a4eddb518326" d="M2265.05,665.63l-.18-.42-4-9.09L2238,603.91l-1.88-4.3-67.8,29.7.13.3,13.28,30.33c.18.41.37.83.57,1.23-1.54,1.33-3.71,3.26-6.18,5.49-9.92,9-24.85,22.84-24.85,22.84l.14.16L2162.51,702l29.28-28.15a4.38,4.38,0,0,0,.34.29h0c-5.28,12-14.36,33.61-14.36,33.61l15.76,5.76,12.56-31.37c.72.25,1.46.47,2.21.67.64,12.95,1.59,29,1.59,29h16.82l-2.13-28a40.34,40.34,0,0,0,10.62-3l10.45-4.58c12.12,7.15,29.66,21.5,34.76,46.45.32,1.56.59,3.16.8,4.81H2131.64a6.48,6.48,0,0,0-6.46,6.46h0a6.48,6.48,0,0,0,6.46,6.46h150.15q-.15,3.93-.69,8.11c-2.29,17.58-10.08,38.73-26.41,64h61.68a224.71,224.71,0,0,0,4.87-34.29C2323.86,740,2318.56,681.25,2265.05,665.63Z"/><rect class="b5d6dfc6-0b3a-49aa-ab9a-fa0705991427" x="2227.84" y="812.57" width="108.71" height="5.2"/><path class="a274e03e-9e51-4fef-9ef4-30abf3fd3474" d="M2396.83,576.68s6,16.55,10.38,28.7a13.26,13.26,0,0,0,16.55,8.08l6.46-2.1a25.16,25.16,0,0,0,15.3-13.87l5.89-13.45s-17.18-12.15-27.82-37.67Z"/><path class="ab2a2852-88d4-4977-93aa-6124c0a3f44a" d="M2394.76,581s39.92-17.89,28.39-42.58-14.13-43.62-40.1-33.25-26.5,22.1-24.65,31.27S2384.08,585,2394.76,581Z"/><path class="f7920c49-4855-41a6-9b1a-70fef94dce11" d="M2423.15,538.43s-19.27-31-53.45-12.29-35.71-21.77-8.28-41.67c0,0,2.72,13.15,22.43,5.51C2425.23,473.94,2424.06,531.51,2423.15,538.43Z"/><path class="ba05bf39-452a-4759-8df1-f97ee4459be0" d="M2669.05,974.07l-102.14,21.34s-33.46-111.06-63-207.62c-9.43-30.82-18.45-60.17-25.85-83.95-8.05-25.84-14.19-45.11-16.85-52.57-12.8-35.83-16.34-72.94-16.34-72.94s50.21-17.12,58.6-14.69c14.71,4.26,53.49,66.53,80.37,141C2606.7,767.94,2669.05,974.07,2669.05,974.07Z"/><polygon class="ba05bf39-452a-4759-8df1-f97ee4459be0" points="2405.86 601.67 2410.15 734.39 2391.5 648.06 2396.83 638.95 2387.1 627 2405.86 601.67"/><path class="ad24cd7a-30c5-4ae4-8313-a4eddb518326" d="M2444.89,578.33s14.2,123.79,41,148.11c0,0-13.47-97-10.69-104.43l-10.57-4.61,5.86-12.52Z"/><path class="ad24cd7a-30c5-4ae4-8313-a4eddb518326" d="M2503.92,788.3c-9.43-30.82-18.45-60.16-25.85-83.94,9.93-15.41,55.39-66.29,55.39-66.29S2524.58,722.45,2503.92,788.3Z"/><path class="ab2a2852-88d4-4977-93aa-6124c0a3f44a" d="M2389.25,683.71,2375.11,701l-37.78-36.08-7.33-7c-6.63-4.38-10.21-15.37-9-26.39s-.09-8.19.62-16,9.89-2.59,9.89-2.59c21.34,14.4,12.58,36.17,12.58,36.17l5.19,4Z"/><path class="ba05bf39-452a-4759-8df1-f97ee4459be0" d="M2490.62,580.39s-32.54,116.87-42.76,131.45l-65.79-39.56-19.88,23.24s61.25,71.35,94.88,68.71c18.14-1.42,78.38-121.19,78.38-121.19S2529.84,576.75,2490.62,580.39Z"/><path class="ba05bf39-452a-4759-8df1-f97ee4459be0" d="M2349.3,653.08c-4,4.11-8.6,8.65-12,11.86l-7.33-7c-6.63-4.38-10.21-15.37-9-26.39s-.09-8.19.62-16,9.89-2.59,9.89-2.59c21.34,14.4,12.58,36.17,12.58,36.17Z"/><path class="ba05bf39-452a-4759-8df1-f97ee4459be0" d="M2321.24,778.28c-.29.73-.46,1.13-.46,1.13-.1-29.79-40.12-95.52-51.86-104.74-3.42-2.68-4.84-4.76-5.15-6.36a3.11,3.11,0,0,1,.82-2.82,2.47,2.47,0,0,1,.28-.28l.18.42C2318.56,681.25,2323.86,740,2321.24,778.28Z"/><path class="ba05bf39-452a-4759-8df1-f97ee4459be0" d="M2236.14,599.61S2233.72,621,2213,630.17c-14.61,6.43-34.2,2.39-44.51-.56l-.13-.3Z"/><path class="ba05bf39-452a-4759-8df1-f97ee4459be0" d="M2176.14,666.66a22.09,22.09,0,0,1-3,7.8c-6.12,10.38-16.38,14-21.75,15.2l-.14-.16S2166.22,675.62,2176.14,666.66Z"/><polygon class="ba05bf39-452a-4759-8df1-f97ee4459be0" points="2396.83 842.1 2382.68 913.16 2358.4 1035.05 2329 1182.68 1665.45 1182.68 1634.59 1040.06 1607.63 915.51 1591.75 842.1 2396.83 842.1"/><path class="ee406feb-65e2-4381-8c97-62491036876f" d="M2396.83,842.1l-14.15,71.06-24.28,121.89c-76.54-39.54-215.13-58.28-339-68.22-131.76-10.6-300.66,28.48-384.8,73.23l-27-124.55-15.88-73.41Z"/><path class="f7920c49-4855-41a6-9b1a-70fef94dce11" d="M2427.79,842.1H1551.23A12.12,12.12,0,0,1,1539.11,830h0a12.11,12.11,0,0,1,12.12-12.12h876.56A12.12,12.12,0,0,1,2439.91,830h0A12.12,12.12,0,0,1,2427.79,842.1Z"/><path class="f7920c49-4855-41a6-9b1a-70fef94dce11" d="M1964.15,621.58c-13.16-13.05-11.47-114.46-11.62-120.66-.44-17.91-7.2-25.39-7.2-25.39-3.48-9.49-60-14.31-74.21,21.88-9.1,23.22-32.38,68.37-32.38,68.37-95.13,132-57.33,197.12-57.33,197.12l4.07-.45c-1.4-4.32-2.51-10.43-1.08-13l3.88,12.92,70.27-9c.53-13.5,6-34.56,6-34.56l.33,35.74,9.43.5c-3.73-75.37,12.28-112.37,17-121.55-4.07,41.9,16.21,110.23,16.21,110.23l2.91-.65-6.59-34.16,8.43,33.75,8.16-1.86q-2-6.82-3.58-13.31c2.24,8.35,3.58,13.31,3.58,13.31,17.51-19,49.58-17.36,49.58-17.36C1987.42,698.89,1964.15,621.58,1964.15,621.58Z"/><polygon class="ab2a2852-88d4-4977-93aa-6124c0a3f44a" points="1971.83 1130.21 1992.33 1171.13 2009.03 1164.69 2005.19 1122.93 1971.83 1130.21"/><path class="a0a86278-94fd-4fdd-bc9a-82dae9487dbd" d="M1985.1,1164.2l5.59,18.48h55.44S2032,1157.75,1985.1,1164.2Z"/><path class="b5d6dfc6-0b3a-49aa-ab9a-fa0705991427" d="M1970,774.12l43.8,358.76h-46.44s-60.6-155.15-69.3-316.84C1894.73,754.27,1970,774.12,1970,774.12Z"/><polygon class="ab2a2852-88d4-4977-93aa-6124c0a3f44a" points="1858.13 1133.44 1867.64 1166.81 1885.4 1164.66 1889.34 1113.66 1858.13 1133.44"/><path class="a0a86278-94fd-4fdd-bc9a-82dae9487dbd" d="M1866,1164.2l5.59,18.48H1927S1912.83,1157.75,1866,1164.2Z"/><path class="f7920c49-4855-41a6-9b1a-70fef94dce11" d="M1910.06,779h-34.4l-36.91-5.17s-23.61,51.58-11.45,204.44c6.18,77.68,29.16,160.31,29.16,160.31l47.61-1,20.56-285.09c.61-7.81,9.7-10.62,9.7-10.62L1933,778.11Z"/><path class="b5d6dfc6-0b3a-49aa-ab9a-fa0705991427" d="M1873.74,1131.77c-6.41-34.48-12-75.37-15.68-118-.55-6.52-1.08-13.23-1.57-19.94-.54-7.4-1-14.9-1.48-22.28a31.44,31.44,0,0,1,1.14-8.28,30.3,30.3,0,0,0,1.08-7.54c-1.48-28.07-1.55-53.76-1.62-76.42q0-8.92-.08-17.47c-.36-51.54-.76-80.75-.78-81h0c0,.29,2.14,29.37,2.51,81q.06,8.55.08,17.47c.06,22.65.14,48.31,1.62,76.33a32.42,32.42,0,0,1-1.13,8.05,30.5,30.5,0,0,0-1.1,7.76c.44,7.38.94,14.86,1.48,22.26.49,6.7,1,13.4,1.57,19.91,3.63,42.59,8,83.84,14.45,118.26Z"/><path class="a274e03e-9e51-4fef-9ef4-30abf3fd3474" d="M1923.79,543.83s-5.45,31.68,14.27,46.63c0,0-18.34,26.13-27.69,25.34-10.4-.88-25.63-33-25.63-33s4.32-19.72,3.43-49.85Z"/><path class="ab2a2852-88d4-4977-93aa-6124c0a3f44a" d="M1930.72,552.89s-43.45,2-44.27-25.1-7-45.06,20.73-47.47,33.41,7.76,35.89,16.73S1942,551.67,1930.72,552.89Z"/><path class="f7920c49-4855-41a6-9b1a-70fef94dce11" d="M1970,774.12s-5.76,4.76-63.33,7.61c-3.75.19-7.3.31-10.68.39-20.65.48-34.54-1-43.69-2.76-12.34-2.43-16-5.53-16-5.53s18-43.35,18-64c0-14.23,32.13-129.62,32.13-129.62,3.77,10.37,13.92,19.25,25.06,19.33,29.17.22,17.79-19.37,17.79-19.37l32.86,13.2s-4.08,12.18-2.55,24a29.77,29.77,0,0,0,2.49,8.87c.28.61.6,1.21.94,1.79,8,13.57,2.51,37.11-3.31,64.38S1970,774.12,1970,774.12Z"/><path class="ab2a2852-88d4-4977-93aa-6124c0a3f44a" d="M2118.69,648.2c-2.33,5.67-2.23,3.25-5.34,11.3s-9.54,14.36-15.7,15c0,0-2.69,2.08-7.11,5.4h0l-4.4,3.27c-19.93,14.7-59.86,42.78-72.33,41.38-16.86-1.88-64.63-70.4-64.63-70.4l12.89-60.75s34.65,58.24,51.74,102.24c0,0,41.87-17.39,65.82-27.47l3.67-1.55,7.8-3.31s1.78-18.2,21.71-20.47C2112.79,642.85,2121,642.52,2118.69,648.2Z"/><path class="e55b7181-9844-4f1b-b5cb-8c563200cac9" d="M2118.69,648.2c-2.33,5.67-2.23,3.25-5.34,11.3s-9.54,14.36-15.7,15c0,0-2.69,2.08-7.11,5.4h0l-4.4,3.27c-.29-6.39-6.51-15-6.51-15h0l3.67-1.55,7.8-3.31s1.78-18.2,21.71-20.47C2112.79,642.85,2121,642.52,2118.69,648.2Z"/><path class="a51a2f00-3c58-4e33-8e77-d601b141b1e3" d="M2114.84,632.75v67.94a5.82,5.82,0,0,1-11.63,0V632.75Z"/><path class="f7920c49-4855-41a6-9b1a-70fef94dce11" d="M2114.84,680.89v19.8a5.82,5.82,0,0,1-11.63,0v-19.8Z"/><path class="ba05bf39-452a-4759-8df1-f97ee4459be0" d="M2043,714.09s-22.73,11.41-27.24,11.41-16.76-5.94-29.65-21.3c-5.62-6.7-13.84-17.19-21.32-26.94-9.67-12.62-18.08-24-18-24.36.2-.63,4.71-63.7,4.71-63.7s10.79,2.94,11.52,3.67,43.06,76.59,50.61,99l25.2-7.57Z"/><path class="ba05bf39-452a-4759-8df1-f97ee4459be0" d="M1922.64,680.56l5.41,242.64h62s-13.53-137.66-20-180.72c-7.42-49.33-6.9-149.61-6.9-149.61s-25.43-10.36-27.37-10S1922.64,680.56,1922.64,680.56Z"/><path class="ad24cd7a-30c5-4ae4-8313-a4eddb518326" d="M1929.19,580.21s-10.32,80.45-6.55,100.35l16.24-54.28-3.67-6.48,6.71-2.1-4.19-34.15S1935,580.21,1929.19,580.21Z"/><path class="ba05bf39-452a-4759-8df1-f97ee4459be0" d="M1916.68,683.07V923.19s-39.39-.71-69.82-1.69c-19.14-.62-34.73-1.35-34.73-2.08,0-1.7,10.8-99.94,30.54-171a136.32,136.32,0,0,0,4.49-48.61c-1.42-16-3.5-34.83-6-43.53a2,2,0,0,1-.07-.23s-37.24,30-36.3,31.43,10.16,26.4,10.16,26.4-17.49,12.68-21,14.46c0,0-32.48-43.79-28-50.76,0,0,56.6-96.24,69.46-92.2,3.65,1.14,41.7-2.54,41.7-2.54Z"/><path class="ad24cd7a-30c5-4ae4-8313-a4eddb518326" d="M1884.74,582.83c1.59,1.59,31.94,100.24,31.94,100.24s-27.86-47.56-30-48.61l3.11-5.86-6.67-3.36-6.08-42.41S1882.14,580.22,1884.74,582.83Z"/><path class="ab2a2852-88d4-4977-93aa-6124c0a3f44a" d="M1869.47,763.59c-5.58,2.54-3.85.84-11.63,4.58s-16.78,3.94-21.71.21l-5.45-4.2c-.94-.72-2.64-2.25-4.82-4.3-10.48-9.85-32-31.55-32-31.55l21-14.45c.57,3.13,17.39,33,20.55,38.64.32.58.5.89.5.89l3,2.31s13.74-12.05,29.83-.07C1868.82,755.65,1875.05,761,1869.47,763.59Z"/><path class="ad24cd7a-30c5-4ae4-8313-a4eddb518326" d="M1814.43,712.48l-24.15,15.06s3.15,3.46,3.25,3.26S1815.32,715,1815.32,715Z"/><path class="f7920c49-4855-41a6-9b1a-70fef94dce11" d="M1942.67,486.8s-53.3,41.07-48.6,71.41c4.43,28.5-4,31-10.2,33.76-16.09,7-42.34-6.9-50.7-6.49-6,.3,14.49-5.77,24.21-18.75,25.86-34.54,23.34-81.2,28.5-84.56C1921.05,459.28,1942.67,486.8,1942.67,486.8Z"/><path class="ad24cd7a-30c5-4ae4-8313-a4eddb518326" d="M2043.66,680.89s4.5,28.9,6.7,33.61l-7.85,4s-4.72-29.89-3.46-35.34Z"/><rect class="b840517c-90ca-459b-9a84-2fbef3ec4c51" x="2105.65" y="632.75" width="3.38" height="48.14"/><path class="ad24cd7a-30c5-4ae4-8313-a4eddb518326" d="M1864.49,783.8c-4.15,15.74-13.61,100.58-17.63,137.7-19.14-.62-34.73-1.35-34.73-2.08,0-1.7,10.8-99.94,30.54-171a136.32,136.32,0,0,0,4.49-48.61c-1.42-16-3.5-34.83-6-43.53,2.73-2.38,5.87-3.79,7.67-2.27C1852.79,657.36,1869.84,763.51,1864.49,783.8Z"/><path class="e55b7181-9844-4f1b-b5cb-8c563200cac9" d="M1869.47,763.59c-5.58,2.54-3.85.84-11.63,4.58s-16.78,3.94-21.71.21l-5.45-4.2c-.94-.72-2.64-2.25-4.82-4.3,3.33-1.85,7.23-4.42,9.64-7.36.32.58.5.89.5.89l3,2.31s13.74-12.05,29.83-.07C1868.82,755.65,1875.05,761,1869.47,763.59Z"/><path class="ad24cd7a-30c5-4ae4-8313-a4eddb518326" d="M2043,714.09s-22.73,11.41-27.24,11.41-16.76-5.94-29.65-21.3c-5.62-6.7-13.84-17.19-21.32-26.94-1-5.16-1.44-10.86,2.06-11.21,6.29-.63,40.23,50.92,48.72,50.6S2043,714.09,2043,714.09Z"/><path class="f7920c49-4855-41a6-9b1a-70fef94dce11" d="M1475.73,466.61s-2.92-11.71-15.81-7-1.57,14.75-1.57,14.75Z"/><polygon class="ab2a2852-88d4-4977-93aa-6124c0a3f44a" points="1486.23 1130.12 1506.74 1171.04 1523.43 1164.6 1519.6 1122.84 1486.23 1130.12"/><path class="a51a2f00-3c58-4e33-8e77-d601b141b1e3" d="M1627,795.23a23.77,23.77,0,0,1-.14,2.55,22.63,22.63,0,0,1-44.86.89,23,23,0,0,1-.26-3.44,22.62,22.62,0,0,1,14.35-21.06V745.49h16.57v28.68A22.61,22.61,0,0,1,1627,795.23Z"/><path class="a0a86278-94fd-4fdd-bc9a-82dae9487dbd" d="M1626.88,797.78a22.63,22.63,0,0,1-44.86.89,231.54,231.54,0,0,1,25.2,1A53.42,53.42,0,0,0,1626.88,797.78Z"/><path class="b840517c-90ca-459b-9a84-2fbef3ec4c51" d="M1602.46,745.49h-3.2l0,28.68s-7.54,5.5-7.54,8.48l9.9,3.15s-1.57-9,.79-11.63Z"/><path class="bee964a5-a763-4984-ba93-36a711ea792c" d="M1499.5,1164.1l5.59,18.48h55.45S1546.35,1157.66,1499.5,1164.1Z"/><path class="e55b7181-9844-4f1b-b5cb-8c563200cac9" d="M1528.19,1132.79h-46.44s-60.6-155.15-69.3-316.84c-3.32-61.78,69.06-42.21,69.06-42.21L1498.68,891Z"/><path class="a7e07ee1-cabc-4993-adfc-84f758b37bdf" d="M1488.7,1132.79h-7s-60.6-155.15-69.3-316.84c-3.32-61.78,69.06-42.21,69.06-42.21L1498.68,891C1492.67,965.66,1484.93,1079.81,1488.7,1132.79Z"/><polygon class="ab2a2852-88d4-4977-93aa-6124c0a3f44a" points="1372.54 1133.35 1382.04 1166.72 1399.81 1164.57 1403.74 1113.57 1372.54 1133.35"/><path class="bee964a5-a763-4984-ba93-36a711ea792c" d="M1380.38,1164.1l5.59,18.48h55.45S1427.23,1157.66,1380.38,1164.1Z"/><path class="e55b7181-9844-4f1b-b5cb-8c563200cac9" d="M1446.22,841.8s-9.09,2.81-9.7,10.62L1416,1137.51l-29.42.6-18.19.38s-23-82.63-29.16-160.31q-1.34-16.84-2.12-32.08c-6.7-128.09,13.57-172.36,13.57-172.36l36.91,5.16h34.39l23-.88Z"/><path class="a7e07ee1-cabc-4993-adfc-84f758b37bdf" d="M1386.54,1138.11l-18.19.38s-23-82.63-29.16-160.31q-1.34-16.84-2.12-32.08l51.07-5.73,7.49,32.06S1382.37,1097.62,1386.54,1138.11Z"/><path class="a274e03e-9e51-4fef-9ef4-30abf3fd3474" d="M1650.07,734.66c-6.48,1.85-4.33.29-13.39,3.08-8.68,2.69-17.94,1-22.88-3.49-2.06.16-4.35.32-6.82.48-22.44,1.42-59.38,2.5-77.52-4.07-16.22-5.87-76.45-54.07-76.45-54.07l-15.38-70.77s31.61-3.66,37,4.55c29.88,45.26,35.25,57.56,72,88.83,23.79,7.3,41.52,13.36,62,19,3.23.9,6.52,1.79,9.92,2.67,2.5-1.44,17.86-9.31,32.07,5C1650.66,725.93,1656.54,732.8,1650.07,734.66Z"/><path class="ad24cd7a-30c5-4ae4-8313-a4eddb518326" d="M1568.67,738.7s-39.29-5.32-41.8-6.9c-1.71-1.07-26.5-18.69-42.21-29.87h0l-12.78-9.1s-19.49-53.22,0-89.85c0,0,50.51,75.71,73.5,91.43l26.42,12.37s-3.48,16.39-3.65,26.31A19,19,0,0,0,1568.67,738.7Z"/><path class="a0a86278-94fd-4fdd-bc9a-82dae9487dbd" d="M1481.71,470.93s-5.44-8.17-18.22-4.19-6.08,16.34-6.08,16.34Z"/><path class="e55b7181-9844-4f1b-b5cb-8c563200cac9" d="M1443.12,822.19H1483a5.85,5.85,0,0,0,5.72-7.06c-4-18.67-13.7-69.51-8.11-93,6.92-29-6.86-107.73-6.86-107.73s-5.12,12.44-36,3.13S1443.12,822.19,1443.12,822.19Z"/><path class="a274e03e-9e51-4fef-9ef4-30abf3fd3474" d="M1480.61,550.39s-18.39,30.21-4.26,53.48c0,0-15.65,19-32.65,12.25-35.34-14-18.76-49.39-18.76-49.39s4.45.83,23.6-41.85Z"/><path class="ab2a2852-88d4-4977-93aa-6124c0a3f44a" d="M1484,562.46s-45.27-15.55-35.16-43.59,11.09-48.93,40.42-40.19,31,21.45,30,31.63S1496.07,565.78,1484,562.46Z"/><path class="f7920c49-4855-41a6-9b1a-70fef94dce11" d="M1470.92,469.67s41.81-10.68,50.61,34.26c3.75,19.19-13.59.95-31.16,1.57s-41.83,19.38-41.83,19.38S1426.61,491.05,1470.92,469.67Z"/><path class="ba05bf39-452a-4759-8df1-f97ee4459be0" d="M1464.81,709.65c-.31,21.64-.84,45.15-1.5,69-2.73,99.66-7.66,205.21-7.66,205.21H1327.29c-6.29-70.4,22.72-289.09,41.86-349.25s51.9-61.22,51.9-61.22l29.78,34.15C1454,616.83,1465.54,657.65,1464.81,709.65Z"/><path class="ad24cd7a-30c5-4ae4-8313-a4eddb518326" d="M1479,610.39s-4.45,5.59-4.31,9.63c4.32,125.49,16,363.84,16,363.84h26.78Z"/><path class="a274e03e-9e51-4fef-9ef4-30abf3fd3474" d="M1609.33,809.32c-7.56.2-4.78-.89-15.41-.4-10.38.5-20.13-4.17-24.12-10.56-4.38-1.5-9.86-3.53-16-5.94-30.84-12.06-78.32-33.3-86.63-41.52-11.71-11.59-68.27-114.25-63.19-125.34s40.23-18,40.23-18l45,108.84,72.26,56.12h0l17,13.2s21.41-7,33.88,14.31C1612.41,800,1616.88,809.12,1609.33,809.32Z"/><path class="a7e07ee1-cabc-4993-adfc-84f758b37bdf" d="M1466.75,615.8S1429,571.67,1430,561.39c0,0-14.69,1-19.59,9.81,0,0,47,59.31,56.36,63.72Z"/><path class="a7e07ee1-cabc-4993-adfc-84f758b37bdf" d="M1471.26,589.89s10.33,5.93,11.53,14.65c0,0-2.15,23.77-10.78,30.27l-5.45-19.28A158.44,158.44,0,0,0,1471.26,589.89Z"/><path class="ad24cd7a-30c5-4ae4-8313-a4eddb518326" d="M1464.81,709.65c-.31,21.64-.84,45.15-1.5,69l-.1,0c-13.54-3.8-36.18-48.21-46.66-79.22s-16.66-70.7-12.57-73.85Z"/><path class="ba05bf39-452a-4759-8df1-f97ee4459be0" d="M1426,592s23.85,1,33.31,37.93,28,80.46,31.43,83.6,45,36.14,45,36.14-9,24.87-9.21,31.45c0,0-56.14-21.35-62.44-30.17s-66.33-111-64.13-122.28S1403.35,604.39,1426,592Z"/><path class="ad24cd7a-30c5-4ae4-8313-a4eddb518326" d="M1377.35,684.9c-6.88,85.69,3.62,242.77,7.82,299h-57.88c-6.29-70.4,22.72-289.09,41.86-349.25s51.9-61.22,51.9-61.22S1385.84,579.31,1377.35,684.9Z"/><path class="e55b7181-9844-4f1b-b5cb-8c563200cac9" d="M1609.33,809.32c-7.56.2-4.78-.89-15.41-.4-10.38.5-20.13-4.17-24.12-10.56-4.38-1.5-9.86-3.53-16-5.94,4.42-5.25,7.72-19.92,7.72-19.92h0l17,13.2s21.41-7,33.88,14.31C1612.41,800,1616.88,809.12,1609.33,809.32Z"/><path class="e55b7181-9844-4f1b-b5cb-8c563200cac9" d="M1650.07,734.66c-6.48,1.85-4.33.29-13.39,3.08-8.68,2.69-17.94,1-22.88-3.49-2.06.16-4.35.32-6.82.48a74.8,74.8,0,0,0,1.69-16.48c3.23.9,6.52,1.79,9.92,2.67,2.5-1.44,17.86-9.31,32.07,5C1650.66,725.93,1656.54,732.8,1650.07,734.66Z"/><path class="a51a2f00-3c58-4e33-8e77-d601b141b1e3" d="M1649.79,743.79a16.23,16.23,0,0,1-.09,1.72,15.27,15.27,0,0,1-30.27.6,16.14,16.14,0,0,1-.17-2.32,15.27,15.27,0,0,1,9.68-14.21V710.23h11.18v19.35A15.26,15.26,0,0,1,1649.79,743.79Z"/><path class="b840517c-90ca-459b-9a84-2fbef3ec4c51" d="M1635.45,710.23h-4.91v19.09s-8.19,9.27-6.55,18.07h7.85s-.23-14.14,3.61-18.07Z"/><path class="f7920c49-4855-41a6-9b1a-70fef94dce11" d="M1649.7,745.51a15.27,15.27,0,0,1-30.27.6,157.16,157.16,0,0,1,17,.64A35.88,35.88,0,0,0,1649.7,745.51Z"/><path class="a51a2f00-3c58-4e33-8e77-d601b141b1e3" d="M1683.44,740v67.93a5.82,5.82,0,0,1-11.63,0V740Z"/><path class="f7920c49-4855-41a6-9b1a-70fef94dce11" d="M1683.44,788.08v19.8a5.82,5.82,0,0,1-11.63,0v-19.8Z"/><path class="a51a2f00-3c58-4e33-8e77-d601b141b1e3" d="M1700.41,740v67.93a5.82,5.82,0,0,1-11.63,0V740Z"/><path class="f7920c49-4855-41a6-9b1a-70fef94dce11" d="M1700.41,788.08v19.8a5.82,5.82,0,0,1-11.63,0v-19.8Z"/><path class="a51a2f00-3c58-4e33-8e77-d601b141b1e3" d="M1717.38,740v67.93a5.81,5.81,0,0,1-11.62,0V740Z"/><path class="f7920c49-4855-41a6-9b1a-70fef94dce11" d="M1717.38,788.08v19.8a5.81,5.81,0,0,1-11.62,0v-19.8Z"/><path class="a51a2f00-3c58-4e33-8e77-d601b141b1e3" d="M1735.71,740v67.93a5.81,5.81,0,1,1-11.62,0V740Z"/><path class="f7920c49-4855-41a6-9b1a-70fef94dce11" d="M1735.71,788.08v19.8a5.81,5.81,0,1,1-11.62,0v-19.8Z"/><rect class="a7e07ee1-cabc-4993-adfc-84f758b37bdf" x="1659.76" y="807.82" width="87.79" height="10.04"/><rect class="b840517c-90ca-459b-9a84-2fbef3ec4c51" x="1673.44" y="739.95" width="1.68" height="45.85"/><rect class="b840517c-90ca-459b-9a84-2fbef3ec4c51" x="1690.83" y="739.95" width="1.68" height="45.85"/><rect class="b840517c-90ca-459b-9a84-2fbef3ec4c51" x="1707.46" y="739.95" width="1.68" height="45.85"/><rect class="b840517c-90ca-459b-9a84-2fbef3ec4c51" x="1726.03" y="739.95" width="1.68" height="45.85"/><path class="a51a2f00-3c58-4e33-8e77-d601b141b1e3" d="M2058,800.66a17.59,17.59,0,0,1-.11,1.94,17.2,17.2,0,0,1-34.09.68,17.47,17.47,0,0,1-.19-2.62,17.2,17.2,0,0,1,10.9-16V762.87h12.59v21.79A17.2,17.2,0,0,1,2058,800.66Z"/><path class="b840517c-90ca-459b-9a84-2fbef3ec4c51" d="M2041.8,762.87h-5.53v21.5s-9.22,10.44-7.38,20.35h8.85s-.26-15.93,4.06-20.35Z"/><path class="ba05bf39-452a-4759-8df1-f97ee4459be0" d="M2057.85,802.6a17.2,17.2,0,0,1-34.09.68,178.88,178.88,0,0,1,19.15.72A40.28,40.28,0,0,0,2057.85,802.6Z"/><path class="a51a2f00-3c58-4e33-8e77-d601b141b1e3" d="M2103.21,800.66a15.44,15.44,0,0,1-.11,1.94,17.19,17.19,0,0,1-34.08.68,17.47,17.47,0,0,1-.19-2.62,17.19,17.19,0,0,1,10.89-16V762.87h12.6v21.79A17.19,17.19,0,0,1,2103.21,800.66Z"/><path class="b840517c-90ca-459b-9a84-2fbef3ec4c51" d="M2087.06,762.87h-5.53v21.5s-9.23,10.44-7.38,20.35H2083s-.26-15.93,4.06-20.35Z"/><path class="a0a86278-94fd-4fdd-bc9a-82dae9487dbd" d="M2103.1,802.6a17.19,17.19,0,0,1-34.08.68,179,179,0,0,1,19.15.72A40.2,40.2,0,0,0,2103.1,802.6Z"/></g></g></svg>