<svg xmlns="http://www.w3.org/2000/svg" viewBox="0 0 1687.89 735.82"><defs><style>.ee4212ba-3d1e-4eaf-b6db-d01a2c45f3ce{fill:#713cd5;}.a72a8075-4c4a-4443-8f73-429c3a433279{fill:#b8b1e5;}.a7e2f13d-fa71-4e81-a7bd-7f29c1338b50{fill:#e7b2b6;}.f06cbcc8-41ef-4cd3-b1ba-1514f4a52d6b{fill:#311649;}.f87fb401-c7dd-4cc4-89ed-9f97daa0e807{fill:#462260;}.a667ef1e-3ebb-4fbe-9bb4-802408a3712c{fill:#562ac5;}.f5be6fcc-40c4-41f4-a9b1-fd82147cb2ea{fill:#d98789;}.f1641b0c-dfc0-4614-b07b-20ae2f412afc{fill:#d3c5ff;}.ebb1fa61-558d-4107-9f00-5e08c88d8e32{fill:#c3b8f2;}.b457e984-bdd8-495d-80ad-0864367a7a82{fill:#fa446c;}.a7975b9c-5af5-4d91-9b94-48f41db02f0e{fill:#feb8dd;}.aacbb175-367e-4b9c-905c-466d101a636e{fill:#ffebf6;}.aad9f47f-5f7b-41be-ba03-aaa22da0c72a{fill:#fed7ea;}.a96fa9a2-47ea-4af1-955f-41f260e83f93{fill:#f29cc3;}</style></defs><title>Asset 2</title><g id="bc855804-f3bd-4b12-9f85-8455fdbacf30" data-name="Layer 2"><g id="b679aa7b-f37b-438b-94d8-6baa90bef806" data-name="Слой 2"><path class="ee4212ba-3d1e-4eaf-b6db-d01a2c45f3ce" d="M1682.15,724.09H5.84A5.85,5.85,0,0,0,0,729.92V730a5.85,5.85,0,0,0,5.84,5.83H1682.15a5.75,5.75,0,0,0,5.74-5.73v-.27A5.75,5.75,0,0,0,1682.15,724.09Z"/><path class="a72a8075-4c4a-4443-8f73-429c3a433279" d="M1299.4,146.51l-33.74,25.16s43.17,266.61,49.8,336.65L1489.89,503S1420.84,138.59,1299.4,146.51Z"/><path class="a72a8075-4c4a-4443-8f73-429c3a433279" d="M1289.88,143.18l-1.8,56.76s-5.65,105.29-12.57,115.34c-3.29,4.79-17,15.59-30.41,25.6-14.8,11-29.3,21.08-29.3,21.08h-27.62l37.27-46.66,13.58-17s6.09-101.45,7.17-113.77C1248.17,162.22,1289.88,143.18,1289.88,143.18Z"/><path class="a7e2f13d-fa71-4e81-a7bd-7f29c1338b50" d="M1245.1,340.88c-14.8,11-29.3,21.08-29.3,21.08h-27.62l37.27-46.66C1229.63,319.71,1241.42,332.56,1245.1,340.88Z"/><path class="f06cbcc8-41ef-4cd3-b1ba-1514f4a52d6b" d="M1379.85,703.34l-6.34,20.39H1310.6S1326.7,696.23,1379.85,703.34Z"/><path class="f06cbcc8-41ef-4cd3-b1ba-1514f4a52d6b" d="M1491.6,703.79,1486,724.18h-55.71S1444.53,696.68,1491.6,703.79Z"/><path class="f87fb401-c7dd-4cc4-89ed-9f97daa0e807" d="M1347.8,324.43h120.94s-40.67,201.89-87.87,380.62l-56.94,1.66Z"/><path class="a667ef1e-3ebb-4fbe-9bb4-802408a3712c" d="M1487.25,322.48s25.42,151.74,7.46,384.23H1446l-30.54-306.47h0c-.89-8.94-14.68-16.78-14.68-16.78V331Z"/><path class="f06cbcc8-41ef-4cd3-b1ba-1514f4a52d6b" d="M1483.24,665.06c-4.42-29.16-8.08-63.76-10.09-99.87-.31-5.52-.59-11.2-.84-16.88-.28-6.27-.52-12.62-.72-18.87a29.06,29.06,0,0,1,1.1-7,27.28,27.28,0,0,0,1-6.39c-.59-23.77-.1-45.53.33-64.73q.17-7.56.31-14.81c.8-43.66,1.11-68.4,1.1-68.64h0c0,.24,1.09,24.86.29,68.58q-.13,7.26-.31,14.81c-.43,19.18-.92,40.93-.33,64.65a28.51,28.51,0,0,1-1.08,6.83,27.73,27.73,0,0,0-1,6.59c.2,6.24.44,12.58.72,18.84.25,5.67.53,11.35.84,16.86,2,36.06,4.69,71,9.1,100.08Z"/><path class="ee4212ba-3d1e-4eaf-b6db-d01a2c45f3ce" d="M1289.88,143.18c21-18.8,55.09-30,87.15-33.76,36.62-4.25,126.85,183.52,91.71,207.12-40.07,26.91-120.94,7.89-120.94,7.89s-40.72-51.75-51.8-75.24C1287.91,232.05,1289.88,143.18,1289.88,143.18Z"/><polygon class="a667ef1e-3ebb-4fbe-9bb4-802408a3712c" points="1231.52 109.4 1183.35 135.84 1194.51 156.69 1242.68 129.38 1231.52 109.4"/><path class="ee4212ba-3d1e-4eaf-b6db-d01a2c45f3ce" d="M1246.2,144.36l-11.16-20-42.63,23.4-15.32-29.56L1122,145.42l22.87,52.2c22.77,2,61.06-23.7,61.06-23.7l-2.7-5.21Z"/><path class="a72a8075-4c4a-4443-8f73-429c3a433279" d="M1149.06,207.14l-.18-.43-4-9.09L1122,145.41l-1.89-4.3-67.8,29.7.13.31,13.28,30.32.57,1.23c-1.54,1.33-3.7,3.26-6.17,5.49-9.92,9-24.85,22.84-24.85,22.84l.14.16,11.07,12.34,29.29-28.15.33.3h0c-5.28,12-14.36,33.62-14.36,33.62l15.77,5.75,12.55-31.36c.73.24,1.47.47,2.21.67.64,12.95,1.59,29,1.59,29h16.83l-2.13-28a40.79,40.79,0,0,0,10.61-3l10.46-4.58c12.11,7.15,29.65,21.51,34.75,46.45.32,1.56.59,3.17.81,4.81H1015.66a6.48,6.48,0,0,0-6.47,6.46h0a6.48,6.48,0,0,0,6.47,6.46H1165.8c-.1,2.62-.32,5.32-.69,8.12-2.29,17.57-10.08,38.72-26.41,64h61.68a224.71,224.71,0,0,0,4.87-34.29C1207.88,281.47,1202.58,222.76,1149.06,207.14Z"/><rect class="a667ef1e-3ebb-4fbe-9bb4-802408a3712c" x="1111.85" y="354.08" width="108.71" height="5.2"/><path class="f5be6fcc-40c4-41f4-a9b1-fd82147cb2ea" d="M1280.84,118.18s6,16.56,10.38,28.7a13.26,13.26,0,0,0,16.56,8.08l6.45-2.09A25.26,25.26,0,0,0,1329.54,139l5.88-13.46s-17.17-12.15-27.82-37.67Z"/><path class="a7e2f13d-fa71-4e81-a7bd-7f29c1338b50" d="M1278.77,122.51s39.92-17.89,28.4-42.58S1293,36.31,1267.06,46.69,1240.57,68.78,1242.41,78,1268.09,126.53,1278.77,122.51Z"/><path class="ee4212ba-3d1e-4eaf-b6db-d01a2c45f3ce" d="M1307.17,79.93s-19.28-31-53.45-12.29S1218,45.87,1245.43,26c0,0,2.72,13.16,22.44,5.51C1309.24,15.44,1308.08,73,1307.17,79.93Z"/><path class="f1641b0c-dfc0-4614-b07b-20ae2f412afc" d="M1553.06,515.57l-102.13,21.34s-33.47-111.06-63-207.61c-9.43-30.83-18.46-60.17-25.86-84-8-25.84-14.18-45.12-16.85-52.58-12.8-35.83-16.33-72.94-16.33-72.94s50.2-17.11,58.6-14.68c14.7,4.25,53.48,66.52,80.36,141C1490.72,309.45,1553.06,515.57,1553.06,515.57Z"/><polygon class="f1641b0c-dfc0-4614-b07b-20ae2f412afc" points="1289.88 143.18 1294.16 275.89 1275.51 189.57 1280.84 180.45 1271.11 168.51 1289.88 143.18"/><path class="a72a8075-4c4a-4443-8f73-429c3a433279" d="M1328.9,119.83s14.2,123.8,41,148.11c0,0-13.47-97-10.69-104.43l-10.57-4.61,5.87-12.52Z"/><path class="a72a8075-4c4a-4443-8f73-429c3a433279" d="M1387.94,329.81c-9.43-30.83-18.46-60.17-25.86-83.95,9.93-15.41,55.39-66.28,55.39-66.28S1408.6,264,1387.94,329.81Z"/><path class="a7e2f13d-fa71-4e81-a7bd-7f29c1338b50" d="M1273.27,225.21l-14.14,17.31-37.78-36.08-7.34-7c-6.62-4.38-10.21-15.37-9-26.38s-.1-8.19.62-16,9.89-2.59,9.89-2.59c21.34,14.4,12.57,36.17,12.57,36.17l5.19,4Z"/><path class="f1641b0c-dfc0-4614-b07b-20ae2f412afc" d="M1374.64,121.9s-32.55,116.86-42.76,131.44l-65.8-39.56L1246.2,237s61.25,71.35,94.88,68.72c18.14-1.42,78.38-121.2,78.38-121.2S1413.85,118.26,1374.64,121.9Z"/><path class="f1641b0c-dfc0-4614-b07b-20ae2f412afc" d="M1233.31,194.58c-4,4.11-8.59,8.65-12,11.86l-7.34-7c-6.62-4.38-10.21-15.37-9-26.38s-.1-8.19.62-16,9.89-2.59,9.89-2.59c21.34,14.4,12.57,36.17,12.57,36.17Z"/><path class="f1641b0c-dfc0-4614-b07b-20ae2f412afc" d="M1205.26,319.78l-.46,1.13c-.11-29.79-40.13-95.51-51.86-104.74-3.42-2.68-4.85-4.76-5.16-6.36a3.12,3.12,0,0,1,.82-2.81,3.83,3.83,0,0,1,.28-.29l.18.43C1202.58,222.76,1207.88,281.47,1205.26,319.78Z"/><path class="f1641b0c-dfc0-4614-b07b-20ae2f412afc" d="M1120.15,141.11s-2.41,21.43-23.16,30.57c-14.61,6.43-34.19,2.38-44.51-.56l-.13-.31Z"/><path class="f1641b0c-dfc0-4614-b07b-20ae2f412afc" d="M1060.16,208.16a22.24,22.24,0,0,1-3,7.81c-6.12,10.37-16.38,14-21.74,15.19l-.14-.16S1050.24,217.12,1060.16,208.16Z"/><polygon class="f1641b0c-dfc0-4614-b07b-20ae2f412afc" points="1280.84 383.6 1266.69 454.66 1242.42 576.55 1213.01 724.18 549.47 724.18 518.6 581.56 491.64 457.01 475.76 383.6 1280.84 383.6"/><path class="ebb1fa61-558d-4107-9f00-5e08c88d8e32" d="M1280.84,383.6l-14.15,71.06-24.27,121.89c-76.55-39.53-215.14-58.28-339-68.22-131.76-10.59-300.65,28.49-384.8,73.23L491.65,457,475.76,383.6Z"/><path class="ee4212ba-3d1e-4eaf-b6db-d01a2c45f3ce" d="M1311.8,383.6H435.24a12.12,12.12,0,0,1-12.12-12.12h0a12.12,12.12,0,0,1,12.12-12.12H1311.8a12.12,12.12,0,0,1,12.13,12.12h0A12.12,12.12,0,0,1,1311.8,383.6Z"/><path class="ee4212ba-3d1e-4eaf-b6db-d01a2c45f3ce" d="M848.16,163.08C835,150,836.69,48.62,836.54,42.42c-.43-17.91-7.2-25.39-7.2-25.39-3.47-9.49-60-14.31-74.21,21.88-9.1,23.22-32.38,68.37-32.38,68.37-95.13,132-57.32,197.12-57.32,197.12l4.06-.45c-1.4-4.32-2.5-10.43-1.07-13l3.87,12.93,70.27-9c.54-13.51,6-34.57,6-34.57l.33,35.75,9.43.49c-3.73-75.36,12.28-112.37,17-121.55-4.06,41.91,16.22,110.23,16.22,110.23l2.9-.65-6.58-34.16,8.42,33.75,8.17-1.86q-1.95-6.83-3.59-13.31l3.59,13.31C821.93,263.2,854,264.89,854,264.89,871.44,240.39,848.16,163.08,848.16,163.08Z"/><polygon class="a7e2f13d-fa71-4e81-a7bd-7f29c1338b50" points="855.84 671.71 876.35 712.63 893.04 706.19 889.21 664.43 855.84 671.71"/><path class="b457e984-bdd8-495d-80ad-0864367a7a82" d="M869.11,705.7l5.59,18.48h55.45S916,699.25,869.11,705.7Z"/><path class="a667ef1e-3ebb-4fbe-9bb4-802408a3712c" d="M854,315.62,897.8,674.39H851.36s-60.6-155.16-69.29-316.84C778.74,295.77,854,315.62,854,315.62Z"/><polygon class="a7e2f13d-fa71-4e81-a7bd-7f29c1338b50" points="742.15 674.94 751.65 708.31 769.42 706.16 773.35 655.16 742.15 674.94"/><path class="b457e984-bdd8-495d-80ad-0864367a7a82" d="M750,705.7l5.59,18.48H811S796.84,699.25,750,705.7Z"/><path class="ee4212ba-3d1e-4eaf-b6db-d01a2c45f3ce" d="M794.07,320.5h-34.4l-36.9-5.16s-23.62,51.57-11.46,204.43c6.18,77.68,29.16,160.31,29.16,160.31l47.61-1L808.64,394c.61-7.81,9.7-10.62,9.7-10.62L817,319.62Z"/><path class="a667ef1e-3ebb-4fbe-9bb4-802408a3712c" d="M757.75,673.27c-6.41-34.47-12-75.37-15.67-118-.56-6.52-1.09-13.23-1.58-19.94-.53-7.4-1-14.89-1.48-22.27a31.93,31.93,0,0,1,1.14-8.29,30.23,30.23,0,0,0,1.08-7.54c-1.47-28.06-1.55-53.75-1.62-76.42,0-6,0-11.76-.07-17.47-.37-51.54-.77-80.75-.79-81h0c0,.28,2.14,29.36,2.51,81q.06,8.57.08,17.48c.07,22.64.14,48.31,1.62,76.32a31.51,31.51,0,0,1-1.13,8.05,30.48,30.48,0,0,0-1.09,7.77c.44,7.37.94,14.86,1.48,22.25.48,6.7,1,13.4,1.57,19.92,3.62,42.59,8.05,83.83,14.45,118.25Z"/><path class="f5be6fcc-40c4-41f4-a9b1-fd82147cb2ea" d="M807.81,85.33S802.36,117,822.07,132c0,0-18.33,26.14-27.68,25.34-10.41-.88-25.63-33-25.63-33s4.31-19.71,3.42-49.84Z"/><path class="a7e2f13d-fa71-4e81-a7bd-7f29c1338b50" d="M814.74,94.39s-43.46,2-44.28-25.09-7-45.07,20.73-47.48,33.42,7.76,35.89,16.73S826,93.18,814.74,94.39Z"/><path class="ee4212ba-3d1e-4eaf-b6db-d01a2c45f3ce" d="M854,315.63s-5.77,4.75-63.34,7.6q-5.61.28-10.67.39c-20.65.48-34.55-1-43.7-2.76-12.34-2.43-16-5.52-16-5.52s18-43.36,18-64c0-14.24,32.14-129.62,32.14-129.62,3.76,10.36,13.91,19.24,25.06,19.33,29.16.21,17.79-19.38,17.79-19.38l32.85,13.2s-4.08,12.19-2.55,24a29.69,29.69,0,0,0,2.49,8.87c.29.61.6,1.21,1,1.79,7.94,13.58,2.5,37.11-3.31,64.38S854,315.63,854,315.63Z"/><path class="a7e2f13d-fa71-4e81-a7bd-7f29c1338b50" d="M1002.71,189.7c-2.34,5.67-2.24,3.25-5.35,11.3s-9.54,14.36-15.69,15c0,0-2.69,2.08-7.12,5.4h0c-1.32,1-2.8,2.09-4.41,3.27-19.92,14.7-59.85,42.78-72.33,41.38-16.85-1.88-64.63-70.4-64.63-70.4l12.89-60.75s34.66,58.24,51.74,102.24c0,0,41.88-17.39,65.82-27.47,1.28-.53,2.5-1.06,3.67-1.55l7.8-3.31s1.79-18.2,21.71-20.47C996.8,184.35,1005,184,1002.71,189.7Z"/><path class="a7975b9c-5af5-4d91-9b94-48f41db02f0e" d="M1002.71,189.7c-2.34,5.67-2.24,3.25-5.35,11.3s-9.54,14.36-15.69,15c0,0-2.69,2.08-7.12,5.4h0c-1.32,1-2.8,2.09-4.41,3.27-.29-6.39-6.51-15-6.51-15h0c1.28-.53,2.5-1.06,3.67-1.55l7.8-3.31s1.79-18.2,21.71-20.47C996.8,184.35,1005,184,1002.71,189.7Z"/><path class="aacbb175-367e-4b9c-905c-466d101a636e" d="M998.86,174.25v67.94a5.82,5.82,0,0,1-11.63,0V174.25Z"/><path class="ee4212ba-3d1e-4eaf-b6db-d01a2c45f3ce" d="M998.86,222.39v19.8a5.82,5.82,0,0,1-11.63,0v-19.8Z"/><path class="f1641b0c-dfc0-4614-b07b-20ae2f412afc" d="M927.05,255.59S904.31,267,899.8,267s-16.75-5.94-29.64-21.3c-5.62-6.7-13.85-17.18-21.32-26.94-9.68-12.62-18.09-24-18-24.36.21-.63,4.72-63.7,4.72-63.7s10.78,2.94,11.52,3.67,43.06,76.59,50.6,99l25.2-7.56Z"/><path class="f1641b0c-dfc0-4614-b07b-20ae2f412afc" d="M806.65,222.07l5.41,242.63h62S860.48,327,854,284c-7.43-49.33-6.9-149.61-6.9-149.61s-25.44-10.35-27.38-10S806.65,222.07,806.65,222.07Z"/><path class="a72a8075-4c4a-4443-8f73-429c3a433279" d="M813.21,121.71s-10.33,80.46-6.56,100.36l16.24-54.29-3.66-6.48,6.7-2.1-4.19-34.15S819,121.71,813.21,121.71Z"/><path class="f1641b0c-dfc0-4614-b07b-20ae2f412afc" d="M800.7,224.57V464.7s-39.39-.71-69.83-1.7c-19.14-.62-34.73-1.35-34.73-2.07,0-1.71,10.8-99.95,30.55-171a136.85,136.85,0,0,0,4.49-48.62c-1.42-16-3.5-34.82-6-43.53,0-.07,0-.15-.07-.23s-37.23,30-36.29,31.43S699,255.38,699,255.38s-17.49,12.67-21.05,14.45c0,0-32.47-43.78-28-50.76,0,0,56.6-96.23,69.46-92.2,3.64,1.15,41.7-2.54,41.7-2.54Z"/><path class="a72a8075-4c4a-4443-8f73-429c3a433279" d="M768.76,124.33c1.59,1.59,31.94,100.25,31.94,100.25S772.83,177,770.73,176l3.12-5.87-6.68-3.35-6.07-42.42S766.15,121.72,768.76,124.33Z"/><path class="a7e2f13d-fa71-4e81-a7bd-7f29c1338b50" d="M753.48,305.09c-5.57,2.54-3.84.84-11.62,4.59s-16.78,3.94-21.71.2l-5.46-4.2c-.94-.72-2.64-2.25-4.81-4.3-10.49-9.85-32-31.54-32-31.54L699,255.38c.57,3.13,17.4,33.06,20.55,38.64.32.58.51.9.51.9l3,2.3s13.75-12.05,29.83-.07C752.83,297.15,759.06,302.54,753.48,305.09Z"/><path class="a72a8075-4c4a-4443-8f73-429c3a433279" d="M698.45,254l-24.16,15.07s3.15,3.46,3.26,3.25,21.78-15.83,21.78-15.83Z"/><path class="ee4212ba-3d1e-4eaf-b6db-d01a2c45f3ce" d="M826.68,28.3s-53.3,41.07-48.59,71.41c4.42,28.51-4,31-10.2,33.76-16.09,7-42.35-6.9-50.71-6.48-5.95.29,14.5-5.78,24.22-18.76,25.85-34.54,23.34-81.2,28.5-84.56C805.06.78,826.68,28.3,826.68,28.3Z"/><path class="a72a8075-4c4a-4443-8f73-429c3a433279" d="M927.67,222.39s4.51,28.9,6.71,33.62l-7.86,4s-4.71-29.89-3.46-35.34Z"/><rect class="aad9f47f-5f7b-41be-ba03-aaa22da0c72a" x="989.66" y="174.25" width="3.38" height="48.14"/><path class="a72a8075-4c4a-4443-8f73-429c3a433279" d="M748.51,325.3c-4.16,15.75-13.62,100.58-17.64,137.7-19.14-.62-34.73-1.35-34.73-2.07,0-1.71,10.8-99.95,30.55-171a136.85,136.85,0,0,0,4.49-48.62c-1.42-16-3.5-34.82-6-43.53,2.73-2.38,5.87-3.78,7.67-2.27C736.81,198.86,753.85,305,748.51,325.3Z"/><path class="a7975b9c-5af5-4d91-9b94-48f41db02f0e" d="M753.48,305.09c-5.57,2.54-3.84.84-11.62,4.59s-16.78,3.94-21.71.2l-5.46-4.2c-.94-.72-2.64-2.25-4.81-4.3,3.32-1.85,7.22-4.41,9.63-7.36.32.58.51.9.51.9l3,2.3s13.75-12.05,29.83-.07C752.83,297.15,759.06,302.54,753.48,305.09Z"/><path class="a72a8075-4c4a-4443-8f73-429c3a433279" d="M927.05,255.59S904.31,267,899.8,267s-16.75-5.94-29.64-21.3c-5.62-6.7-13.85-17.18-21.32-26.94-1.05-5.15-1.44-10.86,2.06-11.21,6.28-.63,40.23,50.92,48.71,50.6S927.05,255.59,927.05,255.59Z"/><path class="ee4212ba-3d1e-4eaf-b6db-d01a2c45f3ce" d="M359.74,8.11s-2.92-11.71-15.8-7-1.57,14.75-1.57,14.75Z"/><polygon class="a7e2f13d-fa71-4e81-a7bd-7f29c1338b50" points="370.25 671.62 390.75 712.54 407.45 706.1 403.61 664.34 370.25 671.62"/><path class="aacbb175-367e-4b9c-905c-466d101a636e" d="M511,336.73a21.6,21.6,0,0,1-.15,2.56,22.63,22.63,0,0,1-44.85.88,22.92,22.92,0,0,1-.26-3.44,22.64,22.64,0,0,1,14.34-21.06V287H496.7v28.68A22.62,22.62,0,0,1,511,336.73Z"/><path class="b457e984-bdd8-495d-80ad-0864367a7a82" d="M510.89,339.29a22.63,22.63,0,0,1-44.85.88,231.62,231.62,0,0,1,25.2,1A53.41,53.41,0,0,0,510.89,339.29Z"/><path class="aad9f47f-5f7b-41be-ba03-aaa22da0c72a" d="M486.47,287h-3.19l.05,28.68s-7.54,5.5-7.54,8.49l9.9,3.14s-1.58-9,.78-11.63Z"/><path class="f06cbcc8-41ef-4cd3-b1ba-1514f4a52d6b" d="M383.52,705.61l5.58,18.48h55.45S430.37,699.16,383.52,705.61Z"/><path class="a7975b9c-5af5-4d91-9b94-48f41db02f0e" d="M412.2,674.29H365.76s-60.59-155.15-69.29-316.84c-3.32-61.77,69.06-42.2,69.06-42.2l17.16,117.27Z"/><path class="a96fa9a2-47ea-4af1-955f-41f260e83f93" d="M372.72,674.29h-7s-60.59-155.15-69.29-316.84c-3.32-61.77,69.06-42.2,69.06-42.2l17.16,117.27C376.69,507.16,368.94,621.31,372.72,674.29Z"/><polygon class="a7e2f13d-fa71-4e81-a7bd-7f29c1338b50" points="256.55 674.85 266.05 708.22 283.82 706.07 287.75 655.07 256.55 674.85"/><path class="f06cbcc8-41ef-4cd3-b1ba-1514f4a52d6b" d="M264.4,705.61,270,724.09h55.45S311.25,699.16,264.4,705.61Z"/><path class="a7975b9c-5af5-4d91-9b94-48f41db02f0e" d="M330.23,383.3s-9.09,2.81-9.7,10.62L300,679l-29.41.61-18.2.37s-23-82.63-29.16-160.31q-1.33-16.84-2.12-32.08c-6.69-128.08,13.58-172.35,13.58-172.35l36.9,5.16H306l23-.88Z"/><path class="a96fa9a2-47ea-4af1-955f-41f260e83f93" d="M270.56,679.62l-18.2.37s-23-82.63-29.16-160.31q-1.33-16.84-2.12-32.08l51.07-5.73,7.5,32.06S266.39,639.12,270.56,679.62Z"/><path class="f5be6fcc-40c4-41f4-a9b1-fd82147cb2ea" d="M534.08,276.16c-6.48,1.85-4.32.29-13.38,3.09-8.68,2.68-17.94.94-22.88-3.49l-6.82.47c-22.44,1.43-59.39,2.5-77.52-4.06C397.26,266.29,337,218.09,337,218.09l-15.38-70.77s31.61-3.66,37,4.55c29.89,45.26,35.26,57.56,72,88.83,23.79,7.3,41.53,13.36,62,19.05q4.83,1.35,9.91,2.67c2.5-1.44,17.86-9.3,32.07,5C534.67,267.43,540.56,274.3,534.08,276.16Z"/><path class="a72a8075-4c4a-4443-8f73-429c3a433279" d="M452.68,280.21s-39.28-5.33-41.8-6.9c-1.71-1.08-26.5-18.7-42.21-29.88h0l-12.79-9.09s-19.48-53.23,0-89.85c0,0,50.52,75.7,73.5,91.42l26.43,12.37s-3.49,16.39-3.65,26.31A19.13,19.13,0,0,0,452.68,280.21Z"/><path class="b457e984-bdd8-495d-80ad-0864367a7a82" d="M365.73,12.43s-5.45-8.17-18.23-4.19-6.08,16.35-6.08,16.35Z"/><path class="a7975b9c-5af5-4d91-9b94-48f41db02f0e" d="M327.13,363.7H367a5.85,5.85,0,0,0,5.73-7.06c-4-18.67-13.71-69.52-8.12-93,6.92-29-6.85-107.72-6.85-107.72s-5.13,12.43-36,3.12S327.13,363.7,327.13,363.7Z"/><path class="f5be6fcc-40c4-41f4-a9b1-fd82147cb2ea" d="M364.62,91.89s-18.39,30.21-4.26,53.48c0,0-15.65,19-32.65,12.25-35.33-14-18.76-49.38-18.76-49.38s4.46.82,23.61-41.86Z"/><path class="a7e2f13d-fa71-4e81-a7bd-7f29c1338b50" d="M368.05,104S322.78,88.41,332.9,60.37,344,11.44,373.31,20.18s31.06,21.45,30,31.63S380.09,107.28,368.05,104Z"/><path class="ee4212ba-3d1e-4eaf-b6db-d01a2c45f3ce" d="M354.94,11.18s41.8-10.69,50.6,34.25c3.76,19.19-13.59,1-31.15,1.58s-41.83,19.37-41.83,19.37S310.62,32.55,354.94,11.18Z"/><path class="f1641b0c-dfc0-4614-b07b-20ae2f412afc" d="M348.82,251.15c-.31,21.64-.83,45.16-1.49,69-2.74,99.66-7.67,205.21-7.67,205.21H211.31C205,455,234,236.27,253.16,176.11s51.91-61.22,51.91-61.22L334.84,149C338,158.34,349.56,199.15,348.82,251.15Z"/><path class="a72a8075-4c4a-4443-8f73-429c3a433279" d="M363,151.89s-4.46,5.59-4.32,9.63C363,287,374.74,525.37,374.74,525.37h26.77Z"/><path class="f5be6fcc-40c4-41f4-a9b1-fd82147cb2ea" d="M493.34,350.82c-7.55.2-4.78-.89-15.41-.39-10.37.49-20.13-4.18-24.11-10.56-4.39-1.51-9.87-3.54-16-5.94-30.85-12.07-78.33-33.31-86.64-41.53C339.47,280.81,282.91,178.16,288,167.07s40.23-18,40.23-18l45,108.84L445.54,314h0l17,13.2s21.41-7,33.89,14.3C496.43,341.51,500.9,350.62,493.34,350.82Z"/><path class="a96fa9a2-47ea-4af1-955f-41f260e83f93" d="M350.77,157.3S313,113.17,314,102.89c0,0-14.68,1-19.58,9.81,0,0,47,59.31,56.36,63.72Z"/><path class="a96fa9a2-47ea-4af1-955f-41f260e83f93" d="M355.28,131.39s10.32,5.93,11.53,14.65c0,0-2.16,23.78-10.78,30.27L350.58,157A158.44,158.44,0,0,0,355.28,131.39Z"/><path class="a72a8075-4c4a-4443-8f73-429c3a433279" d="M348.82,251.15c-.31,21.64-.83,45.16-1.49,69l-.11,0c-13.54-3.8-36.18-48.21-46.66-79.22s-16.65-70.7-12.57-73.84Z"/><path class="f1641b0c-dfc0-4614-b07b-20ae2f412afc" d="M310,133.54s23.86,1,33.32,37.93,28,80.46,31.43,83.6,44.94,36.14,44.94,36.14-9,24.87-9.21,31.45c0,0-56.14-21.34-62.44-30.17s-66.32-111-64.12-122.28S287.36,145.9,310,133.54Z"/><path class="a72a8075-4c4a-4443-8f73-429c3a433279" d="M261.37,226.41c-6.89,85.68,3.61,242.76,7.81,299H211.31C205,455,234,236.27,253.16,176.11s51.91-61.22,51.91-61.22S269.85,120.81,261.37,226.41Z"/><path class="a7975b9c-5af5-4d91-9b94-48f41db02f0e" d="M493.34,350.82c-7.55.2-4.78-.89-15.41-.39-10.37.49-20.13-4.18-24.11-10.56-4.39-1.51-9.87-3.54-16-5.94,4.41-5.26,7.72-19.92,7.72-19.92h0l17,13.2s21.41-7,33.89,14.3C496.43,341.51,500.9,350.62,493.34,350.82Z"/><path class="a7975b9c-5af5-4d91-9b94-48f41db02f0e" d="M534.08,276.16c-6.48,1.85-4.32.29-13.38,3.09-8.68,2.68-17.94.94-22.88-3.49l-6.82.47a76,76,0,0,0,1.69-16.48q4.83,1.35,9.91,2.67c2.5-1.44,17.86-9.3,32.07,5C534.67,267.43,540.56,274.3,534.08,276.16Z"/><path class="aacbb175-367e-4b9c-905c-466d101a636e" d="M533.81,285.29a16.56,16.56,0,0,1-.1,1.73,15.27,15.27,0,0,1-30.26.59,14.82,14.82,0,0,1-.18-2.32A15.27,15.27,0,0,1,513,271.08V251.73h11.18v19.35A15.27,15.27,0,0,1,533.81,285.29Z"/><path class="aad9f47f-5f7b-41be-ba03-aaa22da0c72a" d="M519.46,251.73h-4.91v19.09s-8.19,9.27-6.55,18.07h7.86s-.24-14.14,3.6-18.07Z"/><path class="ee4212ba-3d1e-4eaf-b6db-d01a2c45f3ce" d="M533.71,287a15.27,15.27,0,0,1-30.26.59,157.59,157.59,0,0,1,17,.65A36.26,36.26,0,0,0,533.71,287Z"/><path class="aacbb175-367e-4b9c-905c-466d101a636e" d="M567.46,281.45v67.93a5.82,5.82,0,1,1-11.63,0V281.45Z"/><path class="ee4212ba-3d1e-4eaf-b6db-d01a2c45f3ce" d="M567.46,329.59v19.79a5.82,5.82,0,1,1-11.63,0V329.59Z"/><path class="aacbb175-367e-4b9c-905c-466d101a636e" d="M584.43,281.45v67.93a5.82,5.82,0,1,1-11.63,0V281.45Z"/><path class="ee4212ba-3d1e-4eaf-b6db-d01a2c45f3ce" d="M584.43,329.59v19.79a5.82,5.82,0,1,1-11.63,0V329.59Z"/><path class="aacbb175-367e-4b9c-905c-466d101a636e" d="M601.4,281.45v67.93a5.82,5.82,0,1,1-11.63,0V281.45Z"/><path class="ee4212ba-3d1e-4eaf-b6db-d01a2c45f3ce" d="M601.4,329.59v19.79a5.82,5.82,0,1,1-11.63,0V329.59Z"/><path class="aacbb175-367e-4b9c-905c-466d101a636e" d="M619.73,281.45v67.93a5.82,5.82,0,1,1-11.63,0V281.45Z"/><path class="ee4212ba-3d1e-4eaf-b6db-d01a2c45f3ce" d="M619.73,329.59v19.79a5.82,5.82,0,1,1-11.63,0V329.59Z"/><rect class="a96fa9a2-47ea-4af1-955f-41f260e83f93" x="543.78" y="349.32" width="87.79" height="10.04"/><rect class="aad9f47f-5f7b-41be-ba03-aaa22da0c72a" x="557.45" y="281.45" width="1.68" height="45.85"/><rect class="aad9f47f-5f7b-41be-ba03-aaa22da0c72a" x="574.84" y="281.45" width="1.68" height="45.85"/><rect class="aad9f47f-5f7b-41be-ba03-aaa22da0c72a" x="591.47" y="281.45" width="1.68" height="45.85"/><rect class="aad9f47f-5f7b-41be-ba03-aaa22da0c72a" x="610.04" y="281.45" width="1.68" height="45.85"/><path class="aacbb175-367e-4b9c-905c-466d101a636e" d="M942,342.16a17.92,17.92,0,0,1-.11,1.95,17.2,17.2,0,0,1-34.08.67,17.2,17.2,0,0,1,10.7-18.62V304.37h12.6v21.79A17.19,17.19,0,0,1,942,342.16Z"/><path class="aad9f47f-5f7b-41be-ba03-aaa22da0c72a" d="M925.81,304.37h-5.52v21.5s-9.23,10.44-7.38,20.35h8.85s-.27-15.92,4-20.35Z"/><path class="f1641b0c-dfc0-4614-b07b-20ae2f412afc" d="M941.86,344.11a17.2,17.2,0,0,1-34.08.67,176.71,176.71,0,0,1,19.15.73A40.63,40.63,0,0,0,941.86,344.11Z"/><path class="aacbb175-367e-4b9c-905c-466d101a636e" d="M987.23,342.16a17.92,17.92,0,0,1-.11,1.95,17.2,17.2,0,0,1-34.09.67,18.79,18.79,0,0,1-.19-2.62,17.2,17.2,0,0,1,10.9-16V304.37h12.59v21.79A17.18,17.18,0,0,1,987.23,342.16Z"/><path class="aad9f47f-5f7b-41be-ba03-aaa22da0c72a" d="M971.07,304.37h-5.53v21.5s-9.22,10.44-7.38,20.35H967s-.26-15.92,4.06-20.35Z"/><path class="b457e984-bdd8-495d-80ad-0864367a7a82" d="M987.12,344.11a17.2,17.2,0,0,1-34.09.67,176.62,176.62,0,0,1,19.15.73A40.71,40.71,0,0,0,987.12,344.11Z"/></g></g></svg>